<svg width="24" height="24" viewBox="0 0 24 24" fill="none" xmlns="http://www.w3.org/2000/svg">
<g id="arrow_back_ios_new">
<mask id="mask0_1034_26123" style="mask-type:alpha" maskUnits="userSpaceOnUse" x="0" y="0" width="24" height="24">
<rect id="Bounding box" y="24" width="24" height="24" transform="rotate(-90 0 24)" fill="#D9D9D9"/>
</mask>
<g mask="url(#mask0_1034_26123)">
<path id="arrow_back_ios_new_2" d="M12 14.4498L19.35 7.09981C19.6 6.84981 19.8917 6.72897 20.225 6.7373C20.5583 6.74564 20.85 6.8748 21.1 7.1248C21.35 7.3748 21.475 7.66647 21.475 7.9998C21.475 8.33314 21.35 8.6248 21.1 8.8748L13.425 16.5748C13.225 16.7748 13 16.9248 12.75 17.0248C12.5 17.1248 12.25 17.1748 12 17.1748C11.75 17.1748 11.5 17.1248 11.25 17.0248C11 16.9248 10.775 16.7748 10.575 16.5748L2.87499 8.8748C2.62499 8.6248 2.50415 8.32897 2.51249 7.9873C2.52082 7.64564 2.64999 7.3498 2.89999 7.0998C3.14999 6.8498 3.44166 6.7248 3.77499 6.7248C4.10832 6.7248 4.39999 6.8498 4.64999 7.0998L12 14.4498Z" fill="#007AFF"/>
</g>
</g>
</svg>
