<svg width="20" height="20" viewBox="0 0 20 20" fill="none" xmlns="http://www.w3.org/2000/svg">
<g id="remove">
<mask id="mask0_1001_16427" style="mask-type:alpha" maskUnits="userSpaceOnUse" x="0" y="0" width="20" height="20">
<rect id="Bounding box" width="20" height="20" fill="#D9D9D9"/>
</mask>
<g mask="url(#mask0_1001_16427)">
<path id="remove_2" d="M5.3545 11.2293C5.02094 11.2293 4.73264 11.1093 4.48958 10.8691C4.24653 10.629 4.125 10.3408 4.125 10.0046C4.125 9.66829 4.24549 9.37863 4.48646 9.13558C4.72743 8.89252 5.01667 8.771 5.35417 8.771H14.6455C14.9791 8.771 15.2674 8.89106 15.5104 9.13118C15.7535 9.37132 15.875 9.65952 15.875 9.99577C15.875 10.332 15.7545 10.6217 15.5135 10.8647C15.2726 11.1078 14.9833 11.2293 14.6458 11.2293H5.3545Z" fill="white"/>
</g>
</g>
</svg>
