<svg width="171" height="165" viewBox="0 0 171 165" fill="none" xmlns="http://www.w3.org/2000/svg">
<circle cx="77.8651" cy="55.0106" r="43.8519" stroke="url(#paint0_linear_518_782)" stroke-width="22.3175"/>
<circle cx="135.029" cy="96.9045" r="13.1164" fill="url(#paint1_linear_518_782)"/>
<path d="M31.6706 156L23.7146 146.259V156H19.3294V134.137H23.7146V143.941L31.6706 134.137H36.9642L27.9432 144.974L37.2147 156H31.6706ZM56.5436 138.647L45.7999 164.207H41.1328L44.8915 155.561L37.9378 138.647H42.8555L47.3347 150.769L51.8765 138.647H56.5436ZM66.4562 156.282C64.7857 156.282 63.2822 155.916 61.9458 155.186C60.6093 154.434 59.5548 153.379 58.7822 152.022C58.0304 150.665 57.6545 149.099 57.6545 147.324C57.6545 145.549 58.0409 143.983 58.8135 142.625C59.607 141.268 60.6824 140.224 62.0397 139.493C63.397 138.741 64.911 138.365 66.5815 138.365C68.2521 138.365 69.766 138.741 71.1233 139.493C72.4806 140.224 73.5456 141.268 74.3182 142.625C75.1118 143.983 75.5085 145.549 75.5085 147.324C75.5085 149.099 75.1013 150.665 74.2869 152.022C73.4934 153.379 72.4076 154.434 71.0294 155.186C69.672 155.916 68.1477 156.282 66.4562 156.282ZM66.4562 152.461C67.2497 152.461 67.9911 152.273 68.6802 151.897C69.3901 151.5 69.9539 150.915 70.3716 150.143C70.7892 149.37 70.998 148.43 70.998 147.324C70.998 145.674 70.5595 144.411 69.6825 143.534C68.8263 142.636 67.7718 142.187 66.5189 142.187C65.266 142.187 64.2114 142.636 63.3553 143.534C62.52 144.411 62.1024 145.674 62.1024 147.324C62.1024 148.973 62.5096 150.247 63.324 151.145C64.1592 152.022 65.2033 152.461 66.4562 152.461ZM86.1174 156.219C84.593 156.219 83.2148 155.958 81.9828 155.436C80.7716 154.914 79.8111 154.162 79.1011 153.181C78.3911 152.2 78.0257 151.041 78.0048 149.704H82.7032C82.7658 150.602 83.0791 151.312 83.6429 151.834C84.2276 152.356 85.0211 152.617 86.0234 152.617C87.0466 152.617 87.8506 152.377 88.4353 151.897C89.02 151.396 89.3123 150.748 89.3123 149.955C89.3123 149.307 89.1139 148.775 88.7172 148.357C88.3204 147.94 87.8192 147.616 87.2137 147.386C86.629 147.136 85.8146 146.864 84.7705 146.572C83.3505 146.154 82.1916 145.747 81.2937 145.35C80.4166 144.933 79.6545 144.317 79.0071 143.502C78.3807 142.667 78.0674 141.56 78.0674 140.182C78.0674 138.887 78.3911 137.76 79.0384 136.799C79.6858 135.839 80.5941 135.108 81.7635 134.607C82.9329 134.085 84.2693 133.823 85.7728 133.823C88.0281 133.823 89.8552 134.377 91.2543 135.484C92.6743 136.569 93.4573 138.094 93.6035 140.057H88.7798C88.738 139.305 88.4144 138.689 87.8088 138.209C87.2241 137.708 86.441 137.457 85.4596 137.457C84.6034 137.457 83.9143 137.676 83.3923 138.115C82.8911 138.553 82.6406 139.19 82.6406 140.025C82.6406 140.61 82.8285 141.101 83.2044 141.498C83.6011 141.873 84.0814 142.187 84.6452 142.437C85.2299 142.667 86.0443 142.938 87.0884 143.252C88.5083 143.669 89.6673 144.087 90.5652 144.505C91.4631 144.922 92.2358 145.549 92.8831 146.384C93.5304 147.219 93.8541 148.315 93.8541 149.673C93.8541 150.842 93.5513 151.928 92.9457 152.93C92.3402 153.933 91.4527 154.737 90.2833 155.342C89.1139 155.927 87.7253 156.219 86.1174 156.219ZM114.1 138.647L103.357 164.207H98.6895L102.448 155.561L95.4946 138.647H100.412L104.891 150.769L109.433 138.647H114.1ZM125.924 138.397C127.991 138.397 129.662 139.054 130.935 140.37C132.209 141.665 132.846 143.481 132.846 145.82V156H128.461V146.415C128.461 145.037 128.116 143.983 127.427 143.252C126.738 142.5 125.798 142.124 124.608 142.124C123.397 142.124 122.436 142.5 121.726 143.252C121.037 143.983 120.693 145.037 120.693 146.415V156H116.308V138.647H120.693V140.808C121.277 140.057 122.019 139.472 122.917 139.054C123.836 138.616 124.838 138.397 125.924 138.397ZM135.732 147.324C135.732 145.528 136.097 143.962 136.828 142.625C137.559 141.268 138.572 140.224 139.866 139.493C141.161 138.741 142.644 138.365 144.314 138.365C146.465 138.365 148.24 138.908 149.639 139.994C151.059 141.059 152.009 142.563 152.49 144.505H147.76C147.509 143.753 147.081 143.168 146.476 142.75C145.891 142.312 145.16 142.093 144.283 142.093C143.03 142.093 142.038 142.552 141.307 143.471C140.576 144.369 140.211 145.653 140.211 147.324C140.211 148.973 140.576 150.257 141.307 151.176C142.038 152.074 143.03 152.523 144.283 152.523C146.058 152.523 147.217 151.73 147.76 150.143H152.49C152.009 152.022 151.059 153.515 149.639 154.622C148.219 155.729 146.444 156.282 144.314 156.282C142.644 156.282 141.161 155.916 139.866 155.186C138.572 154.434 137.559 153.39 136.828 152.053C136.097 150.696 135.732 149.119 135.732 147.324Z" fill="black"/>
<defs>
<linearGradient id="paint0_linear_518_782" x1="25.2037" y1="1.47218e-07" x2="122.892" y2="98.6667" gradientUnits="userSpaceOnUse">
<stop stop-color="#00D1FF"/>
<stop offset="0.556755" stop-color="#0085FF"/>
<stop offset="1" stop-color="#007AFF"/>
</linearGradient>
<linearGradient id="paint1_linear_518_782" x1="149.32" y1="112.174" x2="118.389" y2="79.4812" gradientUnits="userSpaceOnUse">
<stop stop-color="#FFC300"/>
<stop offset="1" stop-color="#FFD600"/>
</linearGradient>
</defs>
</svg>
