<svg width="20" height="20" viewBox="0 0 20 20" fill="none" xmlns="http://www.w3.org/2000/svg">
<g id="add">
<mask id="mask0_1001_16423" style="mask-type:alpha" maskUnits="userSpaceOnUse" x="0" y="0" width="20" height="20">
<rect id="Bounding box" width="20" height="20" fill="#D9D9D9"/>
</mask>
<g mask="url(#mask0_1001_16423)">
<path id="add_2" d="M8.77079 11.229H5.52079C5.18329 11.229 4.89406 11.1089 4.65308 10.8688C4.41211 10.6287 4.29163 10.3405 4.29163 10.0042C4.29163 9.66797 4.41211 9.37831 4.65308 9.13525C4.89406 8.8922 5.18329 8.77067 5.52079 8.77067H8.77079V5.52067C8.77079 5.18317 8.89086 4.89393 9.13098 4.65296C9.37112 4.41199 9.65931 4.2915 9.99556 4.2915C10.3318 4.2915 10.6215 4.41199 10.8645 4.65296C11.1076 4.89393 11.2291 5.18317 11.2291 5.52067V8.77067H14.4791C14.8166 8.77067 15.1059 8.89073 15.3468 9.13086C15.5878 9.371 15.7083 9.65919 15.7083 9.99544C15.7083 10.3317 15.5878 10.6214 15.3468 10.8644C15.1059 11.1075 14.8166 11.229 14.4791 11.229H11.2291V14.479C11.2291 14.8165 11.1091 15.1057 10.8689 15.3467C10.6288 15.5877 10.3406 15.7082 10.0044 15.7082C9.66809 15.7082 9.37843 15.5877 9.13538 15.3467C8.89232 15.1057 8.77079 14.8165 8.77079 14.479V11.229Z" fill="white"/>
</g>
</g>
</svg>
