<svg width="16" height="18" viewBox="0 0 16 18" fill="none" xmlns="http://www.w3.org/2000/svg">
<path d="M6.8 0.899959L0.8 5.39996C0.3 5.77996 0 6.36996 0 6.99996V16C0 17.1 0.9 18 2 18H14C15.1 18 16 17.1 16 16V6.99996C16 6.36996 15.7 5.77996 15.2 5.39996L9.2 0.899959C8.85316 0.641844 8.43234 0.502441 8 0.502441C7.56766 0.502441 7.14684 0.641844 6.8 0.899959ZM8.5 9.49996C8.5 10.33 7.83 11 7 11V14.5C7 14.78 6.78 15 6.5 15C6.22 15 6 14.78 6 14.5V11C5.17 11 4.5 10.33 4.5 9.49996V6.99996C4.5 6.71996 4.72 6.49996 5 6.49996C5.28 6.49996 5.5 6.71996 5.5 6.99996V9.49996H6V6.99996C6 6.71996 6.22 6.49996 6.5 6.49996C6.78 6.49996 7 6.71996 7 6.99996V9.49996H7.5V6.99996C7.5 6.71996 7.72 6.49996 8 6.49996C8.28 6.49996 8.5 6.71996 8.5 6.99996V9.49996ZM10.5 15C10.22 15 10 14.78 10 14.5V11.5H9.5C9.22 11.5 9 11.28 9 11V8.49996C9 7.61996 9.57 6.86996 10.36 6.60996C10.67 6.49996 11 6.74996 11 7.08996V14.5C11 14.78 10.78 15 10.5 15Z" fill="white"/>
</svg>
