<svg width="24" height="24" viewBox="0 0 24 24" fill="none" xmlns="http://www.w3.org/2000/svg">
<g id="edit_square">
<mask id="mask0_1001_16584" style="mask-type:alpha" maskUnits="userSpaceOnUse" x="0" y="0" width="24" height="24">
<rect id="Bounding box" width="24" height="24" fill="#D9D9D9"/>
</mask>
<g mask="url(#mask0_1001_16584)">
<path id="edit_square_2" d="M5 22.525C4.45 22.525 3.97917 22.3292 3.5875 21.9375C3.19583 21.5458 3 21.075 3 20.525V6.525C3 5.975 3.19583 5.50417 3.5875 5.1125C3.97917 4.72083 4.45 4.525 5 4.525H13.925L11.925 6.525H5V20.525H19V13.575L21 11.575V20.525C21 21.075 20.8042 21.5458 20.4125 21.9375C20.0208 22.3292 19.55 22.525 19 22.525H5ZM16.175 5.1L17.6 6.5L11 13.1V14.525H12.4L19.025 7.9L20.45 9.3L13.825 15.925C13.6417 16.1083 13.4292 16.2542 13.1875 16.3625C12.9458 16.4708 12.6917 16.525 12.425 16.525H10C9.71667 16.525 9.47917 16.4292 9.2875 16.2375C9.09583 16.0458 9 15.8083 9 15.525V13.1C9 12.8333 9.05 12.5792 9.15 12.3375C9.25 12.0958 9.39167 11.8833 9.575 11.7L16.175 5.1ZM20.45 9.3L16.175 5.1L18.675 2.6C19.075 2.2 19.5542 2 20.1125 2C20.6708 2 21.1417 2.2 21.525 2.6L22.925 4.025C23.3083 4.40833 23.5 4.875 23.5 5.425C23.5 5.975 23.3083 6.44167 22.925 6.825L20.45 9.3Z" fill="black"/>
</g>
</g>
</svg>
