<svg width="25" height="24" viewBox="0 0 25 24" fill="none" xmlns="http://www.w3.org/2000/svg">
<g id="material-symbols:fastfood">
<path id="Vector" d="M3.5 14.4545C3.5 13.6364 3.67728 12.9205 4.03182 12.3068C4.38637 11.6932 4.85 11.1818 5.42273 10.7727C5.99546 10.3636 6.65 10.0568 7.38637 9.85227C8.12273 9.64773 8.87273 9.54545 9.63637 9.54545C10.4 9.54545 11.15 9.64773 11.8864 9.85227C12.6227 10.0568 13.2773 10.3636 13.85 10.7727C14.4227 11.1818 14.8864 11.6932 15.2409 12.3068C15.5955 12.9205 15.7727 13.6364 15.7727 14.4545H3.5ZM17.4091 21V14.4545C17.4091 12.8864 16.9283 11.5533 15.9666 10.4553C15.005 9.35727 13.652 8.59036 11.9076 8.15454L11.6818 6.27273H15.7727V3H17.4091V6.27273H21.5L20.15 19.8136C20.1091 20.1409 19.9626 20.4205 19.7106 20.6523C19.4586 20.8841 19.1551 21 18.8 21H17.4091ZM3.5 17.7273V16.0909H15.7727V17.7273H3.5ZM4.31818 21C4.08637 21 3.89191 20.9215 3.73482 20.7644C3.57773 20.6073 3.49946 20.4131 3.5 20.1818V19.3636H15.7727V20.1818C15.7727 20.4136 15.6942 20.6081 15.5371 20.7652C15.38 20.9223 15.1858 21.0005 14.9545 21H4.31818Z" fill="black"/>
</g>
</svg>
